<svg width="90" height="90" viewBox="0 0 90 90" fill="none" xmlns="http://www.w3.org/2000/svg">
<path d="M45 7.5C65.7113 7.5 82.5 24.2888 82.5 45C82.5 65.7113 65.7113 82.5 45 82.5C24.2888 82.5 7.5 65.7113 7.5 45C7.5 24.2888 24.2888 7.5 45 7.5ZM45 13.125C36.5462 13.125 28.4387 16.4832 22.461 22.461C16.4832 28.4387 13.125 36.5462 13.125 45C13.125 53.4538 16.4832 61.5613 22.461 67.539C28.4387 73.5168 36.5462 76.875 45 76.875C53.4538 76.875 61.5613 73.5168 67.539 67.539C73.5168 61.5613 76.875 53.4538 76.875 45C76.875 36.5462 73.5168 28.4387 67.539 22.461C61.5613 16.4832 53.4538 13.125 45 13.125ZM45 26.25C45.7459 26.25 46.4613 26.5463 46.9887 27.0738C47.5162 27.6012 47.8125 28.3166 47.8125 29.0625V42.1875H60.9375C61.6834 42.1875 62.3988 42.4838 62.9262 43.0113C63.4537 43.5387 63.75 44.2541 63.75 45C63.75 45.7459 63.4537 46.4613 62.9262 46.9887C62.3988 47.5162 61.6834 47.8125 60.9375 47.8125H47.8125V60.9375C47.8125 61.6834 47.5162 62.3988 46.9887 62.9262C46.4613 63.4537 45.7459 63.75 45 63.75C44.2541 63.75 43.5387 63.4537 43.0113 62.9262C42.4838 62.3988 42.1875 61.6834 42.1875 60.9375V47.8125H29.0625C28.3166 47.8125 27.6012 47.5162 27.0738 46.9887C26.5463 46.4613 26.25 45.7459 26.25 45C26.25 44.2541 26.5463 43.5387 27.0738 43.0113C27.6012 42.4838 28.3166 42.1875 29.0625 42.1875H42.1875V29.0625C42.1875 28.3166 42.4838 27.6012 43.0113 27.0738C43.5387 26.5463 44.2541 26.25 45 26.25Z" fill="#FF875E"/>
</svg>
