<svg width="35" height="35" viewBox="0 0 35 35" fill="none" xmlns="http://www.w3.org/2000/svg">
<path d="M30.625 18.9583H4.37496C3.98819 18.9583 3.61725 18.8047 3.34376 18.5312C3.07027 18.2577 2.91663 17.8868 2.91663 17.5C2.91663 17.1132 3.07027 16.7423 3.34376 16.4688C3.61725 16.1953 3.98819 16.0417 4.37496 16.0417H30.625C31.0117 16.0417 31.3827 16.1953 31.6562 16.4688C31.9296 16.7423 32.0833 17.1132 32.0833 17.5C32.0833 17.8868 31.9296 18.2577 31.6562 18.5312C31.3827 18.8047 31.0117 18.9583 30.625 18.9583ZM30.625 26.25H4.37496C3.98819 26.25 3.61725 26.0964 3.34376 25.8229C3.07027 25.5494 2.91663 25.1784 2.91663 24.7917C2.91663 24.4049 3.07027 24.034 3.34376 23.7605C3.61725 23.487 3.98819 23.3333 4.37496 23.3333H30.625C31.0117 23.3333 31.3827 23.487 31.6562 23.7605C31.9296 24.034 32.0833 24.4049 32.0833 24.7917C32.0833 25.1784 31.9296 25.5494 31.6562 25.8229C31.3827 26.0964 31.0117 26.25 30.625 26.25ZM30.625 11.6667H4.37496C3.98819 11.6667 3.61725 11.513 3.34376 11.2395C3.07027 10.966 2.91663 10.5951 2.91663 10.2083C2.91663 9.82156 3.07027 9.45063 3.34376 9.17714C3.61725 8.90365 3.98819 8.75 4.37496 8.75H30.625C31.0117 8.75 31.3827 8.90365 31.6562 9.17714C31.9296 9.45063 32.0833 9.82156 32.0833 10.2083C32.0833 10.5951 31.9296 10.966 31.6562 11.2395C31.3827 11.513 31.0117 11.6667 30.625 11.6667Z" fill="#FF875E"/>
</svg>
