<svg width="35" height="35" viewBox="0 0 35 35" fill="none" xmlns="http://www.w3.org/2000/svg">
<path d="M22.391 6.28688L14.9998 13.6781L7.60853 6.28688C7.43076 6.1242 7.19707 6.03639 6.95617 6.04173C6.71526 6.04706 6.48569 6.14514 6.3153 6.31553C6.14491 6.48593 6.04683 6.71549 6.0415 6.95639C6.03616 7.1973 6.12397 7.43098 6.28665 7.60875L13.6742 15L6.28477 22.3894C6.1945 22.4754 6.12233 22.5786 6.07252 22.6929C6.0227 22.8073 5.99625 22.9304 5.9947 23.0551C5.99316 23.1798 6.01656 23.3035 6.06352 23.4191C6.11049 23.5346 6.18008 23.6396 6.2682 23.7278C6.35632 23.816 6.46119 23.8858 6.57664 23.9329C6.6921 23.98 6.81582 24.0036 6.94051 24.0023C7.06521 24.0009 7.18838 23.9746 7.30278 23.925C7.41717 23.8753 7.52049 23.8033 7.60665 23.7131L14.9998 16.3238L22.391 23.715C22.5688 23.8777 22.8025 23.9655 23.0434 23.9602C23.2843 23.9548 23.5139 23.8567 23.6842 23.6863C23.8546 23.516 23.9527 23.2864 23.9581 23.0455C23.9634 22.8046 23.8756 22.5709 23.7129 22.3931L16.3217 15.0019L23.7129 7.60875C23.8032 7.52272 23.8753 7.41951 23.9252 7.30518C23.975 7.19086 24.0014 7.06773 24.003 6.94303C24.0045 6.81833 23.9811 6.69459 23.9342 6.57906C23.8872 6.46354 23.8176 6.35857 23.7295 6.27033C23.6414 6.18208 23.5365 6.11235 23.421 6.06521C23.3056 6.01808 23.1819 5.99451 23.0572 5.99588C22.9325 5.99724 22.8093 6.02353 22.6949 6.07318C22.5805 6.12283 22.4772 6.19485 22.391 6.28501V6.28688Z" fill="#FF875E"/>
</svg>
