<svg width="90" height="90" viewBox="0 0 90 90" fill="none" xmlns="http://www.w3.org/2000/svg">
<path d="M11.25 75.75C11.25 77.4069 12.5931 78.75 14.25 78.75H75.75C77.4069 78.75 78.75 77.4069 78.75 75.75V74.25C78.75 72.5931 77.4069 71.25 75.75 71.25H14.25C12.5931 71.25 11.25 72.5931 11.25 74.25V75.75ZM60 14.25C60 12.5931 61.3431 11.25 63 11.25H72C73.6569 11.25 75 12.5931 75 14.25V60.75C75 62.4069 73.6569 63.75 72 63.75H63C61.3431 63.75 60 62.4069 60 60.75V14.25ZM37.5 25.5C37.5 23.8431 38.8431 22.5 40.5 22.5H49.5C51.1569 22.5 52.5 23.8431 52.5 25.5V60.75C52.5 62.4069 51.1569 63.75 49.5 63.75H40.5C38.8431 63.75 37.5 62.4069 37.5 60.75V25.5ZM15 40.5C15 38.8431 16.3431 37.5 18 37.5H27C28.6569 37.5 30 38.8431 30 40.5V60.75C30 62.4069 28.6569 63.75 27 63.75H18C16.3431 63.75 15 62.4069 15 60.75V40.5Z" fill="#FF875E"/>
</svg>
