<svg width="91" height="90" viewBox="0 0 91 90" fill="none" xmlns="http://www.w3.org/2000/svg">
<path d="M60.6396 22.5L53.1396 30L45.6396 30L40.5396 35.1C35.3265 33.2838 29.6512 33.291 24.4427 35.1204C19.2342 36.9499 14.801 40.4931 11.8686 45.1703C8.93618 49.8475 7.6783 55.3816 8.30083 60.8669C8.92336 66.3521 11.3894 71.4635 15.2954 75.3646C19.2014 79.2657 24.3159 81.7254 29.8019 82.3411C35.2879 82.9567 40.8204 81.6919 45.494 78.7537C50.1675 75.8154 53.7052 71.3777 55.5281 66.1669C57.351 60.9561 57.3511 55.2809 55.5284 50.07L83.1396 22.5L83.1396 7.50005L68.1396 7.50005L60.6396 15.0001L60.6396 22.5Z" stroke="#FF875E" stroke-width="5" stroke-linecap="round" stroke-linejoin="round"/>
<path d="M26.8896 60C24.8185 60 23.1396 61.6789 23.1396 63.75C23.1396 65.8211 24.8185 67.5 26.8896 67.5C28.9607 67.5 30.6396 65.8211 30.6396 63.75C30.6396 61.6789 28.9607 60 26.8896 60Z" stroke="#FF875E" stroke-width="2" stroke-linecap="round" stroke-linejoin="round"/>
</svg>

