<svg width="100" height="100" viewBox="0 0 100 100" fill="none" xmlns="http://www.w3.org/2000/svg">
<path d="M69.27 35.73C69.5028 35.9622 69.6875 36.2381 69.8136 36.5418C69.9396 36.8456 70.0045 37.1712 70.0045 37.5C70.0045 37.8288 69.9396 38.1544 69.8136 38.4582C69.6875 38.7619 69.5028 39.0378 69.27 39.27L60.52 48.02C60.0645 48.4749 59.4511 48.7366 58.8075 48.7506C58.164 48.7646 57.5398 48.5297 57.065 48.095L53.315 44.67C52.8506 44.217 52.5804 43.6011 52.5617 42.9525C52.543 42.304 52.7771 41.6736 53.2147 41.1945C53.6522 40.7154 54.2589 40.4252 54.9064 40.3852C55.554 40.3451 56.1918 40.5584 56.685 40.98L58.67 42.79L65.73 35.73C65.9622 35.4972 66.2381 35.3125 66.5418 35.1864C66.8456 35.0604 67.1712 34.9955 67.5 34.9955C67.8288 34.9955 68.1544 35.0604 68.4582 35.1864C68.7619 35.3125 69.0378 35.4972 69.27 35.73ZM69.27 64.27C69.7394 63.8012 70.0034 63.1652 70.0039 62.5018C70.0044 61.8384 69.7413 61.2019 69.2725 60.7325C68.8037 60.2631 68.1677 59.9991 67.5043 59.9986C66.8409 59.9981 66.2044 60.2612 65.735 60.73L58.67 67.79L56.685 65.98C56.1918 65.5584 55.554 65.3451 54.9064 65.3852C54.2589 65.4252 53.6522 65.7154 53.2147 66.1945C52.7771 66.6736 52.543 67.304 52.5617 67.9525C52.5804 68.6011 52.8506 69.217 53.315 69.67L57.065 73.095C57.5395 73.5283 58.1626 73.7622 58.805 73.7482C59.4474 73.7342 60.0598 73.4735 60.515 73.02L69.265 64.27H69.27ZM32.5 40C31.837 40 31.2011 40.2634 30.7322 40.7322C30.2634 41.2011 30 41.837 30 42.5C30 43.163 30.2634 43.7989 30.7322 44.2678C31.2011 44.7366 31.837 45 32.5 45H45C45.663 45 46.2989 44.7366 46.7678 44.2678C47.2366 43.7989 47.5 43.163 47.5 42.5C47.5 41.837 47.2366 41.2011 46.7678 40.7322C46.2989 40.2634 45.663 40 45 40H32.5ZM30 67.5C30 66.837 30.2634 66.2011 30.7322 65.7322C31.2011 65.2634 31.837 65 32.5 65H45C45.663 65 46.2989 65.2634 46.7678 65.7322C47.2366 66.2011 47.5 66.837 47.5 67.5C47.5 68.163 47.2366 68.7989 46.7678 69.2678C46.2989 69.7366 45.663 70 45 70H32.5C31.837 70 31.2011 69.7366 30.7322 69.2678C30.2634 68.7989 30 68.163 30 67.5ZM35.425 15C35.9422 13.5371 36.9004 12.2706 38.1675 11.3751C39.4347 10.4796 40.9484 9.99919 42.5 10H57.5C59.0516 9.99919 60.5653 10.4796 61.8325 11.3751C63.0996 12.2706 64.0578 13.5371 64.575 15H72.5C74.4891 15 76.3968 15.7902 77.8033 17.1967C79.2098 18.6032 80 20.5109 80 22.5V82.5C80 84.4891 79.2098 86.3968 77.8033 87.8033C76.3968 89.2098 74.4891 90 72.5 90H27.5C25.5109 90 23.6032 89.2098 22.1967 87.8033C20.7902 86.3968 20 84.4891 20 82.5V22.5C20 20.5109 20.7902 18.6032 22.1967 17.1967C23.6032 15.7902 25.5109 15 27.5 15H35.425ZM42.5 15C41.837 15 41.2011 15.2634 40.7322 15.7322C40.2634 16.2011 40 16.837 40 17.5C40 18.163 40.2634 18.7989 40.7322 19.2678C41.2011 19.7366 41.837 20 42.5 20H57.5C58.163 20 58.7989 19.7366 59.2678 19.2678C59.7366 18.7989 60 18.163 60 17.5C60 16.837 59.7366 16.2011 59.2678 15.7322C58.7989 15.2634 58.163 15 57.5 15H42.5ZM35.425 20H27.5C26.837 20 26.2011 20.2634 25.7322 20.7322C25.2634 21.2011 25 21.837 25 22.5V82.5C25 83.163 25.2634 83.7989 25.7322 84.2678C26.2011 84.7366 26.837 85 27.5 85H72.5C73.163 85 73.7989 84.7366 74.2678 84.2678C74.7366 83.7989 75 83.163 75 82.5V22.5C75 21.837 74.7366 21.2011 74.2678 20.7322C73.7989 20.2634 73.163 20 72.5 20H64.575C64.0578 21.4629 63.0996 22.7294 61.8325 23.6249C60.5653 24.5204 59.0516 25.0008 57.5 25H42.5C40.9484 25.0008 39.4347 24.5204 38.1675 23.6249C36.9004 22.7294 35.9422 21.4629 35.425 20Z" fill="#FF875E"/>
</svg>
